<mxfile host="app.diagrams.net" agent="Mozilla/5.0 (X11; Linux x86_64; rv:128.0) Gecko/20100101 Firefox/128.0" version="26.1.3">
  <diagram name="Page-1" id="6KTN4u6O23A8N2TNIm8g">
    <mxGraphModel dx="1434" dy="724" grid="1" gridSize="10" guides="1" tooltips="1" connect="1" arrows="1" fold="1" page="1" pageScale="1" pageWidth="850" pageHeight="1100" math="0" shadow="0">
      <root>
        <mxCell id="0" />
        <mxCell id="1" parent="0" />
        <mxCell id="VMCMAGIBe203YuJ1aWBW-1" value="University" style="swimlane;fontStyle=1;align=center;verticalAlign=top;childLayout=stackLayout;horizontal=1;startSize=26;horizontalStack=0;resizeParent=1;resizeParentMax=0;resizeLast=0;collapsible=1;marginBottom=0;whiteSpace=wrap;html=1;" vertex="1" parent="1">
          <mxGeometry x="600" y="180" width="220" height="340" as="geometry" />
        </mxCell>
        <mxCell id="VMCMAGIBe203YuJ1aWBW-2" value="&lt;div&gt;-name: String {readOnly}&lt;/div&gt;&lt;div&gt;-state: String&lt;/div&gt;&lt;div&gt;-control: String&lt;/div&gt;&lt;div&gt;-numStudents: int&lt;/div&gt;&lt;div&gt;-numApplicants: int&lt;/div&gt;&lt;div&gt;-scaleAcademics: int&lt;/div&gt;&lt;div&gt;-scaleSocial: int&lt;/div&gt;&lt;div&gt;-scaleQualityOfLife: int&lt;/div&gt;&lt;div&gt;-percentFemale: double&lt;/div&gt;&lt;div&gt;-satVerbal: double&lt;/div&gt;&lt;div&gt;-satMath: double&lt;/div&gt;&lt;div&gt;-expenses: double,&lt;/div&gt;&lt;div&gt;-percentFinancialAid: double&lt;/div&gt;&lt;div&gt;-percentAdmitted: int&lt;/div&gt;&lt;div&gt;-percentEnrolled: int&lt;/div&gt;&lt;div&gt;-emphases: List&amp;lt;String&amp;gt; {readOnly}&lt;/div&gt;" style="text;strokeColor=none;fillColor=none;align=left;verticalAlign=top;spacingLeft=4;spacingRight=4;overflow=hidden;rotatable=0;points=[[0,0.5],[1,0.5]];portConstraint=eastwest;whiteSpace=wrap;html=1;" vertex="1" parent="VMCMAGIBe203YuJ1aWBW-1">
          <mxGeometry y="26" width="220" height="244" as="geometry" />
        </mxCell>
        <mxCell id="VMCMAGIBe203YuJ1aWBW-3" value="" style="line;strokeWidth=1;fillColor=none;align=left;verticalAlign=middle;spacingTop=-1;spacingLeft=3;spacingRight=3;rotatable=0;labelPosition=right;points=[];portConstraint=eastwest;strokeColor=inherit;" vertex="1" parent="VMCMAGIBe203YuJ1aWBW-1">
          <mxGeometry y="270" width="220" height="8" as="geometry" />
        </mxCell>
        <mxCell id="VMCMAGIBe203YuJ1aWBW-4" value="&lt;div&gt;+University(name: String)&lt;/div&gt;&lt;div&gt;+addEmphasis(e: String)&lt;/div&gt;&lt;div&gt;+removeEmphasis(e: String): boolean&lt;br&gt;&lt;/div&gt;" style="text;strokeColor=none;fillColor=none;align=left;verticalAlign=top;spacingLeft=4;spacingRight=4;overflow=hidden;rotatable=0;points=[[0,0.5],[1,0.5]];portConstraint=eastwest;whiteSpace=wrap;html=1;" vertex="1" parent="VMCMAGIBe203YuJ1aWBW-1">
          <mxGeometry y="278" width="220" height="62" as="geometry" />
        </mxCell>
      </root>
    </mxGraphModel>
  </diagram>
</mxfile>
